<svg width="35" height="35" viewBox="0 0 35 35" fill="none" xmlns="http://www.w3.org/2000/svg">
<g clip-path="url(#clip0_7_5)">
<path d="M34.3373 31.0735L27.3293 24.1173C29.2369 21.586 30.3815 18.4567 30.3815 15.0683C30.3614 6.75683 23.5542 0 15.1807 0C6.80723 0 0 6.75683 0 15.0683C0 23.3798 6.80723 30.1367 15.1807 30.1367C18.4739 30.1367 21.5261 29.0803 24.0161 27.3064L31.0643 34.3024C31.506 34.7409 32.1084 34.9801 32.6908 34.9801C33.2731 34.9801 33.8755 34.7608 34.3173 34.3024C35.2209 33.4055 35.2209 31.9505 34.3173 31.0535L34.3373 31.0735ZM15.2008 25.5524C9.37751 25.5524 4.63855 20.8485 4.63855 15.0683C4.63855 9.28815 9.35743 4.58428 15.1807 4.58428C21.004 4.58428 25.743 9.28815 25.743 15.0683C25.743 20.8485 21.004 25.5524 15.1807 25.5524H15.2008Z" fill="#C5D5D9"/>
</g>
<defs>
<clipPath id="clip0_7_5">
<rect width="35" height="35" fill="white"/>
</clipPath>
</defs>
</svg>
